<?xml version="1.0" standalone="no"?>
<!DOCTYPE svg PUBLIC "-//W3C//DTD SVG 20010904//EN"
 "http://www.w3.org/TR/2001/REC-SVG-20010904/DTD/svg10.dtd">
<svg version="1.0" xmlns="http://www.w3.org/2000/svg"
 width="700.000000pt" height="700.000000pt" viewBox="0 0 700.000000 700.000000"
 preserveAspectRatio="xMidYMid meet">
<metadata>
Created by potrace 1.14, written by Peter Selinger 2001-2017
</metadata>
<g transform="translate(0.000000,700.000000) scale(0.100000,-0.100000)"
fill="#000000" stroke="none">
<path d="M3209 6976 c-2 -2 -38 -6 -80 -10 -42 -3 -152 -20 -244 -37 -579
-106 -1120 -360 -1590 -748 -128 -106 -376 -357 -479 -486 -98 -124 -217 -296
-296 -430 -61 -103 -220 -427 -220 -448 0 -7 -4 -17 -9 -22 -5 -6 -27 -66 -49
-135 -81 -254 -113 -381 -147 -590 -3 -19 -8 -50 -11 -68 -7 -35 -8 -46 -20
-197 -15 -178 -9 -583 10 -682 3 -11 7 -44 11 -74 11 -92 21 -149 40 -231 8
-35 16 -74 19 -88 67 -331 253 -765 475 -1105 363 -555 937 -1035 1536 -1284
44 -19 95 -40 114 -48 121 -53 488 -153 651 -177 8 -2 33 -6 55 -9 67 -11 193
-25 290 -32 75 -6 448 -6 495 -1 19 3 69 7 110 11 71 5 93 8 165 20 17 3 50 8
75 11 134 18 444 99 585 154 250 96 464 199 632 303 488 305 890 719 1193
1232 46 78 150 278 150 289 0 3 11 29 24 58 82 179 196 547 220 713 4 22 8 47
11 55 4 16 11 58 20 135 4 28 8 61 11 75 21 123 22 649 0 765 -2 11 -6 45 -10
75 -19 156 -40 265 -80 421 -108 418 -287 796 -556 1179 -116 164 -361 422
-585 616 -252 217 -592 421 -926 555 -257 102 -597 189 -839 215 -36 3 -78 8
-95 11 -42 5 -650 14 -656 9z m471 -160 c93 -4 178 -9 188 -10 9 -2 42 -7 72
-11 534 -68 1066 -279 1513 -602 331 -238 674 -610 886 -961 157 -261 285
-558 356 -828 46 -179 86 -385 102 -534 17 -155 8 -682 -13 -805 -36 -214 -51
-281 -89 -420 -127 -451 -356 -887 -643 -1225 -81 -95 -373 -382 -476 -467
-223 -185 -565 -384 -851 -496 -88 -34 -301 -106 -327 -111 -7 -1 -22 -5 -33
-9 -11 -3 -31 -8 -45 -11 -14 -3 -63 -14 -110 -25 -47 -10 -121 -24 -165 -31
-44 -6 -91 -13 -105 -15 -30 -5 -97 -12 -200 -21 -168 -14 -473 -5 -660 21
-19 3 -51 7 -70 10 -19 2 -60 9 -90 15 -30 7 -68 14 -85 17 -155 27 -568 163
-704 233 -9 4 -63 32 -121 60 -440 220 -862 584 -1183 1022 -340 462 -568
1098 -604 1681 -11 198 -7 462 12 607 11 92 18 135 31 210 9 47 18 96 21 110
12 69 59 239 98 355 77 231 184 460 307 660 47 75 204 304 217 315 3 3 40 46
81 95 140 169 417 429 572 536 79 56 249 169 253 169 1 0 34 19 71 42 185 113
617 292 779 323 11 2 21 4 23 4 1 1 4 1 7 2 2 0 28 7 57 15 64 17 261 51 343
59 33 3 71 8 85 10 14 2 61 7 105 11 44 3 81 7 82 8 3 2 135 -1 313 -8z"/>
<path d="M3319 6506 c-2 -2 -38 -6 -79 -10 -189 -16 -428 -66 -631 -131 -857
-276 -1540 -913 -1869 -1744 -34 -87 -94 -261 -105 -308 -3 -10 -11 -45 -20
-78 -8 -33 -17 -73 -20 -89 -3 -16 -8 -32 -10 -36 -2 -3 -7 -29 -11 -56 -3
-27 -8 -58 -10 -69 -30 -155 -35 -623 -8 -850 40 -346 172 -747 348 -1053 85
-148 84 -145 150 -241 373 -537 882 -925 1486 -1133 202 -69 360 -105 620
-142 174 -25 580 -25 714 0 11 2 42 6 70 9 110 13 332 63 466 107 176 57 446
170 520 218 8 5 37 22 65 36 27 15 60 34 75 44 14 9 52 35 85 56 193 124 491
388 642 569 280 336 496 755 603 1169 15 61 31 125 33 141 3 17 10 54 16 82 6
29 13 76 17 105 3 29 8 69 10 88 29 244 18 682 -21 830 -2 8 -6 31 -9 50 -9
58 -16 93 -28 135 -5 22 -12 48 -14 59 -35 182 -219 627 -324 782 -16 25 -30
47 -30 50 0 17 -161 239 -253 349 -70 83 -278 290 -363 361 -315 262 -605 423
-988 549 -162 53 -338 97 -463 115 -37 5 -84 12 -103 15 -81 12 -551 30 -561
21z m-631 -1190 c6 -7 10 -167 12 -473 2 -295 7 -349 36 -370 52 -38 60 4 63
320 4 406 8 497 25 516 19 21 67 25 90 8 22 -16 25 -71 30 -502 4 -357 9 -383
66 -337 29 23 30 42 34 466 3 335 4 360 21 373 37 26 82 13 90 -26 5 -27 14
-267 20 -538 5 -221 9 -261 30 -282 17 -18 43 -8 54 21 5 13 9 158 10 323 2
343 8 486 20 498 5 5 25 11 45 12 57 6 63 -6 82 -155 2 -14 6 -63 9 -110 4
-47 8 -96 10 -109 3 -14 7 -79 11 -145 16 -309 9 -437 -28 -518 -29 -62 -90
-154 -139 -208 -74 -82 -118 -166 -137 -259 -13 -66 -4 -427 13 -556 3 -16 7
-57 9 -90 3 -33 9 -98 15 -145 6 -47 13 -111 16 -142 3 -32 8 -75 10 -95 25
-247 25 -706 0 -898 -9 -70 -35 -157 -56 -192 -30 -47 -95 -83 -155 -84 -186
-3 -238 149 -238 701 1 193 10 447 19 501 2 13 9 76 15 139 7 63 13 129 15
145 2 17 7 63 10 104 4 41 8 82 10 92 17 89 26 467 12 529 -16 70 -68 163
-145 258 -167 204 -189 290 -168 656 4 70 9 136 11 145 1 9 6 55 9 103 4 47 9
97 11 110 2 12 6 50 10 83 9 88 23 133 43 138 17 5 72 0 80 -7z m1796 1 c26
-19 27 -92 29 -1912 l2 -1620 -26 -55 c-32 -66 -61 -95 -111 -108 -103 -28
-219 63 -255 199 -24 93 -23 396 2 564 6 38 16 104 19 130 2 11 7 45 11 75 4
30 9 58 11 61 2 3 6 26 9 50 3 24 12 78 20 119 8 41 17 89 19 105 40 245 43
302 18 351 -17 33 -79 123 -110 159 -21 25 -83 145 -105 205 -25 66 -61 212
-72 285 -20 138 -9 508 20 675 46 265 151 479 306 624 99 93 171 124 213 93z"/>
</g>
</svg>
