<?xml version="1.0" standalone="no"?>
<!DOCTYPE svg PUBLIC "-//W3C//DTD SVG 20010904//EN"
 "http://www.w3.org/TR/2001/REC-SVG-20010904/DTD/svg10.dtd">
<svg version="1.0" xmlns="http://www.w3.org/2000/svg"
 width="490.000000pt" height="490.000000pt" viewBox="0 0 490.000000 490.000000"
 preserveAspectRatio="xMidYMid meet">

<g transform="translate(0.000000,490.000000) scale(0.100000,-0.100000)"
fill="#283c73" stroke="none">
<path d="M2220 4880 c-104 -9 -267 -38 -382 -69 -678 -182 -1248 -650 -1554
-1276 -81 -166 -89 -186 -144 -365 -154 -502 -137 -1059 50 -1556 227 -605
697 -1101 1292 -1365 348 -154 727 -221 1128 -198 819 46 1548 502 1964 1229
53 92 53 92 98 193 145 330 212 643 211 1002 -2 533 -169 1026 -496 1465 -102
137 -328 358 -479 471 -314 232 -643 374 -1038 445 -151 27 -475 40 -650 24z
m520 -120 c419 -52 808 -214 1150 -478 181 -140 407 -392 529 -589 187 -303
284 -579 336 -958 22 -158 16 -467 -13 -635 -65 -380 -202 -701 -435 -1020
-88 -120 -332 -364 -457 -457 -474 -352 -1034 -509 -1623 -453 -343 33 -704
157 -1001 344 -266 169 -536 436 -711 706 -236 363 -365 806 -365 1249 1 621
239 1192 679 1631 372 371 863 609 1356 659 61 6 124 13 140 15 48 7 322 -2
415 -14z"/>
<path d="M2330 4553 c-891 -64 -1635 -663 -1879 -1513 -58 -201 -75 -331 -75
-570 0 -266 26 -437 102 -665 158 -480 518 -914 962 -1160 896 -495 2010 -279
2647 515 334 416 494 934 454 1470 -49 647 -391 1224 -941 1587 -245 162 -545
274 -850 318 -111 15 -327 25 -420 18z m-446 -839 c3 -9 6 -138 6 -288 0 -259
1 -274 20 -291 16 -15 22 -15 35 -5 13 11 15 54 15 287 0 170 4 282 10 294 7
12 21 19 40 19 19 0 33 -7 40 -19 6 -12 10 -124 10 -294 0 -233 2 -276 15
-287 13 -10 19 -10 35 5 19 17 20 32 20 291 0 150 3 279 6 288 7 19 59 22 71
4 4 -7 10 -141 13 -297 4 -251 7 -285 22 -294 12 -8 21 -7 32 2 14 12 16 50
16 295 0 206 3 285 12 294 14 14 64 16 72 3 16 -25 47 -406 44 -536 -3 -134
-4 -143 -35 -205 -17 -36 -55 -90 -84 -120 -66 -70 -98 -140 -106 -227 -6 -75
10 -324 32 -503 50 -409 43 -824 -15 -929 -30 -52 -77 -75 -139 -68 -110 12
-143 125 -143 492 0 123 6 270 15 355 62 568 65 651 28 748 -15 40 -43 84 -78
123 -115 129 -138 200 -130 399 8 182 36 452 49 467 15 18 65 16 72 -3z m1264
4 c9 -9 12 -299 12 -1243 l0 -1231 -22 -44 c-25 -49 -56 -70 -104 -70 -35 0
-88 32 -116 70 -67 91 -63 324 12 735 41 223 51 304 42 339 -6 18 -30 59 -56
90 -120 147 -173 353 -163 625 13 343 94 553 270 699 54 43 100 55 125 30z"/>
</g>
</svg>
